:FULLY-SPECIFIED
:FORCE-ALL-JOINTS-BE-3DOF
:DEGREES
713
root 5.5314 21.4762 7.39344 -69.5855 -87.2797 85.811
lfemur -34.9239 -12.4906 9.84036
ltibia 72.529 0 0
lfoot 6.05365 -7.9067 0
ltoes 31.122 0 0
rfemur -32.1399 -1.11786 -0.58353
rtibia 85.8353 0 0
rfoot 20.1684 -18.5228 0
rtoes 38.7533 0 0
lowerback 6.16464 -0.78717 -1.85055
upperback -1.24977 -1.2857 -1.59403
thorax -4.75155 -0.614636 -0.481084
lowerneck -6.7835 -6.16911 -2.2468
upperneck -0.204432 -8.20169 4.88816
head 1.40478 -4.03641 1.63458
lclavicle -8.90763e-16 -5.9369e-15 0
lhumerus 1.49032 -20.6886 15.4953
lradius 46.2886 0 0
lwrist 23.673 0 0
lhand -21.6029 -3.18656 0
lfingers 7.12502 0 0
lthumb 4.79216 26.7385 0
rclavicle -8.90763e-16 -5.9369e-15 0
rhumerus -12.3059 -3.42487 -26.1827
rradius 99.3003 0 0
rwrist -9.56252 0 0
rhand -28.4537 -35.8462 0
rfingers 7.12502 0 0
rthumb -1.82405 -785.811 0
714
root 5.51157 21.5102 7.60416 -102.298 -87.5364 118.621
lfemur -34.2113 -13.5572 9.13432
ltibia 68.675 0 0
lfoot 6.75189 -8.63334 0
ltoes 30.5105 0 0
rfemur -33.0991 -1.31581 -1.28945
rtibia 91.7625 0 0
rfoot 20.8109 -19.5282 0
rtoes 40.9457 0 0
lowerback 6.09547 -0.670248 -1.81707
upperback -1.28201 -1.12489 -1.57776
thorax -4.7468 -0.535596 -0.499987
lowerneck -6.82811 -6.3147 -2.34908
upperneck -0.328521 -8.38536 4.89991
head 1.38468 -4.13005 1.64844
lclavicle 4.13565e-15 6.67172e-15 0
lhumerus -0.200109 -20.4981 16.0759
lradius 45.3553 0 0
lwrist 23.0441 0 0
lhand -21.9083 -3.27496 0
lfingers 7.12502 0 0
lthumb 4.49729 26.6568 0
rclavicle 4.13565e-15 6.67172e-15 0
rhumerus -11.5412 -2.58941 -26.9422
rradius 99.2655 0 0
rwrist -9.70792 0 0
rhand -27.4717 -34.8616 0
rfingers 7.12502 0 0
rthumb -0.875658 -784.836 0
715
root 5.49097 21.5295 7.79601 -140.605 -87.2103 157.04
lfemur -33.5571 -14.4896 8.51967
ltibia 65.1241 0 0
lfoot 7.43438 -9.44215 0
ltoes 29.8338 0 0
rfemur -33.8349 -1.58686 -1.91882
rtibia 97.0122 0 0
rfoot 21.3635 -20.6634 0
rtoes 42.9309 0 0
lowerback 5.99658 -0.553404 -1.77502
upperback -1.3238 -0.963173 -1.56773
thorax -4.7355 -0.456483 -0.530585
lowerneck -6.88249 -6.45178 -2.43303
upperneck -0.433777 -8.5592 4.89979
head 1.37063 -4.21848 1.65523
lclavicle 1.2921e-14 3.18055e-14 0
lhumerus -1.77093 -20.2407 16.623
lradius 44.6521 0 0
lwrist 22.5382 0 0
lhand -22.2191 -3.35407 0
lfingers 7.12502 0 0
lthumb 4.19717 26.5843 0
rclavicle 1.2921e-14 3.18055e-14 0
rhumerus -10.8552 -1.84384 -27.5558
rradius 99.2563 0 0
rwrist -9.86977 0 0
rhand -26.5547 -33.9151 0
rfingers 7.12502 0 0
rthumb 0.0100137 -783.895 0
716
root 5.46463 21.5047 7.99056 -145.832 -85.6864 162.478
lfemur -32.9241 -15.2889 8.00767
ltibia 61.5921 0 0
lfoot 7.93636 -10.8482 0
ltoes 29.0906 0 0
rfemur -34.0959 -2.33125 -2.63475
rtibia 101.524 0 0
rfoot 21.6809 -21.5599 0
rtoes 44.302 0 0
lowerback 5.7869 -0.363254 -1.67568
upperback -1.40221 -0.697277 -1.55532
thorax -4.69879 -0.327221 -0.599479
lowerneck -6.9511 -6.58723 -2.52994
upperneck -0.577837 -8.72823 4.86436
head 1.34537 -4.30553 1.65314
lclavicle 9.70915e-15 1.84203e-14 0
lhumerus -3.4831 -19.9827 17.1753
lradius 44.411 0 0
lwrist 22.4305 0 0
lhand -22.5875 -3.46672 0
lfingers 7.12502 0 0
lthumb 3.84138 26.4778 0
rclavicle 9.70915e-15 1.84203e-14 0
rhumerus -10.0518 -1.24147 -27.8024
rradius 99.3521 0 0
rwrist -10.1444 0 0
rhand -25.8507 -33.0714 0
rfingers 7.12502 0 0
rthumb 0.689988 -783.048 0
